#!OML:ASF H:\ManfredObstacles\Project 1\Capture day 1\Session 1\Male.ASF
:FULLY-SPECIFIED
:DEGREES
403
root 1.22853 16.2318 -15.4244 -171.44 3.34818 -175.315
lowerback -8.55413 1.44616 0.681752
upperback 3.93089 1.8309 1.04703
thorax 8.9669 0.918687 1.02854
lowerneck 0.726977 -1.44018 -5.17717
upperneck 14.9438 -3.97568 8.14097
head 4.57899 -2.25692 3.19456
rclavicle 3.34455e-014 -2.98177e-015
rhumerus -25.7048 -1.55399 -92.1352
rradius 45.5282
rwrist 21.4863
rhand 0.810597 -7.42921
rfingers 7.12502
rthumb 26.3666 -35.6161
lclavicle 3.34455e-014 -2.98177e-015
lhumerus -47.6728 33.4357 56.7241
lradius 15.7238
lwrist -41.0463
lhand -14.0072 7.98147
lfingers 7.12502
lthumb 12.1222 37.6103
rfemur 2.44588 -2.08835 27.3632
rtibia 20.4336
rfoot -22.7035 19.7982
rtoes 10.8848
lfemur -33.8721 -1.56205 -13.6757
ltibia 21.0911
lfoot -0.740056 -2.83829
ltoes -8.86942
404
root 1.20618 16.2437 -15.7202 -171.343 3.36942 -175.98
lowerback -9.25239 1.43577 -0.167846
upperback 3.87633 1.92071 0.851617
thorax 9.29505 0.908798 1.33354
lowerneck 0.414273 -1.67736 -5.20168
upperneck 14.8513 -4.26575 8.24572
head 4.62672 -2.37671 3.2149
rclavicle -4.52235e-015 -5.56597e-015
rhumerus -26.1778 -2.59256 -91.6631
rradius 44.8868
rwrist 21.4214
rhand 0.884339 -7.56311
rfingers 7.12502
rthumb 26.4371 -35.7394
lclavicle -4.52235e-015 -5.56597e-015
lhumerus -48.1297 34.9446 55.5041
lradius 15.1084
lwrist -43.1105
lhand -13.9725 8.07537
lfingers 7.12502
lthumb 12.1556 37.7022
rfemur 2.94631 -1.505 26.482
rtibia 21.2655
rfoot -21.2403 19.7383
rtoes 11.3151
lfemur -33.5273 -1.50831 -14.7962
ltibia 21.7306
lfoot 1.59285 -3.33721
ltoes -3.39463
405
root 1.18401 16.2587 -16.0131 -171.535 3.19856 -176.422
lowerback -9.66264 1.24593 -0.89351
upperback 3.93513 1.77008 0.723892
thorax 9.58696 0.790195 1.59361
lowerneck 0.229849 -1.71196 -5.20299
upperneck 14.7319 -4.31009 8.46182
head 4.62815 -2.37865 3.27824
rclavicle 1.23743e-014 3.18055e-015
rhumerus -26.5444 -3.59924 -91.2297
rradius 43.8648
rwrist 21.6304
rhand 0.809243 -7.63863
rfingers 7.12502
rthumb 26.3653 -35.8257
lclavicle 1.23743e-014 3.18055e-015
lhumerus -48.8466 36.9697 53.7599
lradius 14.4958
lwrist -45.5669
lhand -14.1232 8.0503
lfingers 7.12502
lthumb 12.0103 37.6857
rfemur 3.46526 -1.10376 25.8618
rtibia 22.5251
rfoot -19.788 19.6561
rtoes 11.983
lfemur -32.9012 -1.01218 -15.8106
ltibia 22.4794
lfoot 3.19356 -4.85876
ltoes 3.52316
406
root 1.15955 16.2722 -16.3059 -171.638 2.78274 -176.516
lowerback -10.1239 1.00019 -1.2604
upperback 3.95063 1.49347 0.700156
thorax 9.8772 0.628467 1.73871
lowerneck 0.313209 -1.69497 -5.30562
upperneck 14.4168 -4.29491 8.82681
head 4.52441 -2.35907 3.41135
rclavicle 1.28216e-014 1.59028e-015
rhumerus -27.0659 -4.98863 -90.5969
rradius 42.641
rwrist 22.1851
rhand 0.594175 -7.62903
rfingers 7.12502
rthumb 26.1594 -35.8468
lclavicle 1.28216e-014 1.59028e-015
lhumerus -49.4798 38.8136 52.205
lradius 13.9942
lwrist -47.6395
lhand -14.2818 7.92187
lfingers 7.12502
lthumb 11.8573 37.5661
rfemur 3.483 -1.16575 25.6104
rtibia 24.5239
rfoot -17.4053 19.6651
rtoes 12.3064
lfemur -32.3976 -0.260158 -16.5153
ltibia 23.4774
lfoot 4.07875 -6.40699
ltoes 3.83913
407
root 1.13578 16.2788 -16.589 -172.136 2.11363 -176.471
lowerback -9.9838 0.732468 -1.41832
upperback 4.00822 1.15748 0.702154
thorax 9.86772 0.457466 1.76636
lowerneck 0.272911 -1.76438 -5.2083
upperneck 14.456 -4.41413 8.88208
head 4.55122 -2.41255 3.40617
rclavicle 1.04362e-014 7.95139e-016
rhumerus -27.8692 -6.82633 -89.7575
rradius 41.322
rwrist 22.9621
rhand 0.356522 -7.68973
rfingers 7.12502
rthumb 25.9318 -35.941
lclavicle 1.04362e-014 7.95139e-016
lhumerus -49.5783 39.9091 51.5475
lradius 13.7215
lwrist -48.5962
lhand -14.1989 7.97546
lfingers 7.12502
lthumb 11.9373 37.6151
rfemur 3.44286 -1.91969 25.4517
rtibia 27.3281
rfoot -15.4044 19.7507
rtoes 10.4756
lfemur -31.4141 0.371934 -16.9891
ltibia 24.3948
lfoot 3.64697 -7.87964
ltoes -1.02205
408
root 1.10178 16.2821 -16.8377 -172.212 1.61174 -175.823
lowerback -9.96175 0.638093 -0.833117
upperback 3.97104 0.937755 0.831364
thorax 9.82833 0.385154 1.53401
lowerneck 0.362152 -1.89176 -5.17848
upperneck 14.1214 -4.56429 9.03998
head 4.44811 -2.47491 3.44499
rclavicle 1.16289e-014 0
rhumerus -28.6062 -8.98975 -88.6865
rradius 39.8594
rwrist 23.8361
rhand 0.145911 -7.87773
rfingers 7.12502
rthumb 25.7301 -36.1583
lclavicle 1.16289e-014 0
lhumerus -49.0916 40.7856 51.5928
lradius 13.5627
lwrist -49.1517
lhand -14.1055 8.03745
lfingers 7.12502
lthumb 12.0274 37.6719
rfemur 2.31396 -2.74896 25.8697
rtibia 30.7982
rfoot -11.7169 19.8772
rtoes 9.71679
lfemur -30.9127 0.819912 -16.6127
ltibia 25.2123
lfoot 3.14425 -9.07125
ltoes -1.16869
409
root 1.05783 16.2926 -17.0948 -173.749 1.74421 -177.472
lowerback -8.55517 0.452387 -2.59136
upperback 4.29482 0.959334 0.422339
thorax 9.33722 0.31499 2.07069
lowerneck 0.533845 -3.08108 -5.14809
upperneck 13.9708 -4.15323 8.80731
head 4.35841 -1.51249 3.44316
rclavicle 4.67144e-015 1.55052e-014
rhumerus -30.5635 -11.2853 -87.2642
rradius 40.2636
rwrist 25.0467
rhand 1.00963 -8.58323
rfingers 7.12502
rthumb 26.5571 -36.7414
lclavicle 4.67144e-015 1.55052e-014
lhumerus -48.3327 41.1017 52.4998
lradius 13.6343
lwrist -48.8436
lhand -14.0351 8.06723
lfingers 7.12502
lthumb 12.0952 37.6976
rfemur 2.44226 -3.94263 23.2967
rtibia 34.8715
rfoot -7.6314 20.4886
rtoes 8.09852
lfemur -28.3682 1.09984 -18.7798
ltibia 25.6922
lfoot 2.2019 -10.0394
ltoes -0.318391
410
root 1.00806 16.3177 -17.3501 -175.419 1.76434 -177.872
lowerback -6.87957 0.484594 -2.82975
upperback 4.68116 1.03515 0.336389
thorax 8.76661 0.365137 2.10149
lowerneck 0.41026 -1.92515 -5.35698
upperneck 13.5916 -4.52192 9.17169
head 4.28228 -2.44429 3.51891
rclavicle 2.28602e-015 6.36111e-015
rhumerus -30.4495 -12.6376 -85.7568
rradius 36.6917
rwrist 25.4309
rhand 0.131492 -8.32028
rfingers 7.12502
rthumb 25.7163 -36.6029
lclavicle 2.28602e-015 6.36111e-015
lhumerus -46.3613 40.1848 55.1591
lradius 13.8903
lwrist -47.1328
lhand -13.9476 8.23724
lfingers 7.12502
lthumb 12.1796 37.8627
rfemur 2.24668 -4.9544 21.9518
rtibia 39.3759
rfoot -3.73171 20.6027
rtoes 8.61481
lfemur -25.5505 1.74824 -19.5887
ltibia 25.8896
lfoot 1.24031 -11.0645
ltoes -1.45661
411
root 0.956896 16.3405 -17.5926 -176.346 1.93938 -177.992
lowerback -5.89208 0.42661 -2.88037
upperback 4.82921 0.953014 0.376165
thorax 8.35076 0.33678 2.14624
lowerneck 0.358273 -3.02362 -5.46055
upperneck 13.6426 -4.08703 8.72208
head 4.28837 -1.52473 3.46535
rclavicle -9.93923e-017 5.96354e-015
rhumerus -31.1061 -13.6928 -84.2401
rradius 34.7294
rwrist 26.2877
rhand 0.0667307 -8.28659
rfingers 7.12502
rthumb 25.6543 -36.5782
lclavicle -9.93923e-017 5.96354e-015
lhumerus -44.0061 38.0126 58.9635
lradius 14.5794
lwrist -43.5684
lhand -13.8837 8.44815
lfingers 7.12502
lthumb 12.2413 38.0699
rfemur 0.987612 -5.55786 21.0097
rtibia 44.0992
rfoot -0.207813 20.1402
rtoes 9.28948
lfemur -23.4236 2.58362 -20.0374
ltibia 25.7148
lfoot 0.677718 -11.9176
ltoes -1.4325
412
root 0.911886 16.3649 -17.8234 -176.514 2.25852 -177.989
lowerback -5.60707 0.444359 -2.8202
upperback 4.7942 0.958308 0.429611
thorax 8.14494 0.345688 2.16411
lowerneck 0.069144 -2.93877 -5.32605
upperneck 13.6114 -3.95282 8.33183
head 4.30926 -1.47859 3.32187
rclavicle -1.1281e-014 -5.56597e-015
rhumerus -31.7074 -14.8051 -82.7071
rradius 32.8416
rwrist 27.4653
rhand 0.0783663 -8.25855
rfingers 7.12502
rthumb 25.6654 -36.5485
lclavicle -1.1281e-014 -5.56597e-015
lhumerus -41.4203 34.7757 63.3718
lradius 15.7289
lwrist -39.1796
lhand -13.7951 8.55916
lfingers 7.12502
lthumb 12.3267 38.1758
rfemur -1.33553 -5.80179 20.4354
rtibia 48.843
rfoot 1.78123 19.1829
rtoes 4.74427
lfemur -22.2033 3.48108 -20.2854
ltibia 25.5669
lfoot 0.26099 -12.6665
ltoes -0.195303
413
root 0.875345 16.3903 -18.0492 -176.441 2.6058 -177.998
lowerback -5.61747 0.393707 -2.87134
upperback 4.67446 0.880727 0.47625
thorax 8.02484 0.302774 2.23067
lowerneck 0.221228 -2.76965 -5.43752
upperneck 13.1861 -3.74089 8.38362
head 4.14205 -1.4009 3.36332
rclavicle -2.08724e-015 9.54166e-015
rhumerus -32.2721 -15.5752 -81.3403
rradius 30.9717
rwrist 28.7887
rhand 0.157819 -8.28914
rfingers 7.12502
rthumb 25.7415 -36.5681
lclavicle -2.08724e-015 9.54166e-015
lhumerus -39.3634 31.2403 67.3221
lradius 17.2191
lwrist -34.8531
lhand -13.7429 8.64658
lfingers 7.12502
lthumb 12.377 38.2602
rfemur -4.00857 -5.93144 20.0444
rtibia 53.41
rfoot 3.25855 16.8018
rtoes 7.37568
lfemur -21.2939 4.28228 -20.4853
ltibia 25.4499
lfoot -0.243544 -13.3476
ltoes 0.147464
414
root 0.846052 16.4117 -18.2684 -176.493 2.78673 -177.93
lowerback -5.5887 0.263376 -2.90359
upperback 4.71199 0.703094 0.577903
thorax 8.05815 0.210475 2.3344
lowerneck 0.0794898 -2.62089 -5.53982
upperneck 12.9316 -3.5506 8.3395
head 4.07607 -1.33068 3.36999
rclavicle 1.98785e-015 -4.37326e-015
rhumerus -32.4379 -16.6483 -79.9429
rradius 28.9349
rwrist 30.6789
rhand 0.145325 -8.16888
rfingers 7.12502
rthumb 25.7296 -36.4496
lclavicle 1.98785e-015 -4.37326e-015
lhumerus -37.5162 28.1543 70.7231
lradius 18.7995
lwrist -31.3693
lhand -13.7039 8.70784
lfingers 7.12502
lthumb 12.4146 38.3192
rfemur -6.47026 -6.19742 19.8674
rtibia 57.616
rfoot 0.80539 14.0548
rtoes -2.69065
lfemur -20.2684 4.72548 -20.5261
ltibia 25.3541
lfoot -0.912001 -13.8948
ltoes -0.111937
415
root 0.81778 16.4304 -18.4809 -176.603 2.81494 -177.671
lowerback -5.49184 0.114073 -2.65294
upperback 4.79856 0.476638 0.686431
thorax 8.10879 0.111492 2.28021
lowerneck 0.0375026 -2.47856 -5.6409
upperneck 12.5899 -3.37899 8.42895
head 3.96988 -1.26488 3.41778
rclavicle 1.83876e-015 1.19271e-014
rhumerus -32.5331 -18.2869 -78.4563
rradius 26.9873
rwrist 33.1492
rhand 0.0114205 -8.07364
rfingers 7.12502
rthumb 25.6013 -36.3728
lclavicle 1.83876e-015 1.19271e-014
lhumerus -35.8924 25.465 73.4855
lradius 20.4306
lwrist -28.8836
lhand -13.5034 8.69928
lfingers 7.12502
lthumb 12.6079 38.2988
rfemur -8.89379 -6.48481 19.9918
rtibia 61.1705
rfoot -2.19311 11.6577
rtoes -10.1194
lfemur -19.2395 4.94379 -20.3424
ltibia 25.3713
lfoot -1.77819 -14.2969
ltoes -0.505345
416
root 0.790238 16.4549 -18.6854 -176.301 2.67554 -177.206
lowerback -5.7829 0.00371121 -2.08463
upperback 4.69726 0.261228 0.817217
thorax 8.18086 0.0301019 2.07318
lowerneck 0.690644 -2.32934 -5.90642
upperneck 11.8803 -3.21121 8.78523
head 3.6424 -1.21112 3.57977
rclavicle 3.08116e-015 0
rhumerus -33.0199 -20.3221 -76.737
rradius 25.3304
rwrist 35.7373
rhand -0.0194503 -8.04589
rfingers 7.12502
rthumb 25.5717 -36.3493
lclavicle 3.08116e-015 0
lhumerus -34.4893 22.8519 75.774
lradius 21.8651
lwrist -27.1606
lhand -13.2958 8.77911
lfingers 7.12502
lthumb 12.808 38.3662
rfemur -11.8613 -6.67467 20.4792
rtibia 64.0227
rfoot -3.41155 10.6209
rtoes -8.5875
lfemur -18.7759 5.01651 -19.9592
ltibia 25.5018
lfoot -2.37025 -14.5649
ltoes -0.106098
